<svg xmlns="http://www.w3.org/2000/svg" viewBox="0 0 500 500"><g id="freepik--Table--inject-15"><g style="opacity:0.9"><path d="M459.35,302c0,.15-93.74.26-209.34.26S40.65,302.19,40.65,302s93.72-.26,209.36-.26S459.35,301.9,459.35,302Z" style="fill:#263238"></path></g></g><g id="freepik--Cake--inject-15"><ellipse cx="250" cy="387.04" rx="191.74" ry="51.37" style="fill:#455a64"></ellipse><g style="opacity:0.9"><path d="M65.6,381.91a13.28,13.28,0,0,0,.74,4c.81,2.51,3,5.88,6.91,9.09,7.73,6.51,21.34,12.46,38.63,17.32,34.7,9.76,84.52,15.62,139.46,15.64S356.13,422,390.83,412.28c17.29-4.86,30.9-10.81,38.63-17.33,3.88-3.2,6.1-6.57,6.91-9.08a13.71,13.71,0,0,0,.74-4s0,.35,0,1a11.68,11.68,0,0,1-.61,3,16,16,0,0,1-2.27,4.35,28.13,28.13,0,0,1-4.61,4.86c-7.73,6.6-21.35,12.61-38.66,17.52-34.73,9.87-84.59,15.79-139.59,15.81s-104.83-5.94-139.56-15.81c-17.31-4.91-30.93-10.92-38.66-17.52a27.75,27.75,0,0,1-4.61-4.86,16,16,0,0,1-2.27-4.35,12.42,12.42,0,0,1-.45-1.7c-.07-.5-.15-.92-.16-1.26C65.6,382.26,65.6,381.91,65.6,381.91Z" style="fill:#263238"></path></g><g style="opacity:0.30000000000000004"><path d="M387,371.22c-3.49-2.14-7.52-2.8-11.46-3.38a482.53,482.53,0,0,0-76.86-5l-169.6,33.05c2.33,7,9.81,9.48,16.31,10.87A462.88,462.88,0,0,0,378,396.7c7.06-2.16,15.55-6.59,15.47-14.87C393.42,377.34,390.53,373.37,387,371.22Z"></path></g><g style="opacity:0.6000000000000001"><path d="M205.13,431.89c0,1.1-.28,2.14-15.11,1a141.88,141.88,0,0,1-18.9-2.56c-2-.47-3.82-1.12-3.74-1.66.18-1.29,1.93-1.18,4.16-.95,4.85.35,11.38.6,18.71,1.13C204.94,430,205.12,430.76,205.13,431.89Z" style="fill:#fff"></path></g><g style="opacity:0.6000000000000001"><path d="M211,430.69l-.46.11a1.9,1.9,0,0,0-1.15,1.72,2,2,0,0,0,1.62,2.06,1.89,1.89,0,0,0,1.84-1.81A1.77,1.77,0,0,0,211,430.69Z" style="fill:#fff"></path></g><path d="M122.8,284.93s-.69,84.76,0,97.16,10.34,24.81,32.39,24.12c17.82-.56,161.67-9.66,216.2-13.14a21.65,21.65,0,0,0,20.26-22.22l-3.54-123.14s-109.57-66.15-112.32-65.46S122.8,284.93,122.8,284.93Z" style="fill:#FF725E"></path><path d="M388.76,270.18a6.09,6.09,0,0,0-7.08-4l-4.77,1.06a6.07,6.07,0,0,0-4.76,6.21l1.15,30.28a6.07,6.07,0,0,1-5.66,6.33L122.5,327.17v10.37l245.64-15.2a6.08,6.08,0,0,1,6.47,5.79l.59,15.51a6.08,6.08,0,0,1-5.66,6.34l-247,13.45.1,11.87,247.3-13.69a6.09,6.09,0,0,1,6.48,5.79l1.1,24.39a21.67,21.67,0,0,0,14.16-20.94Z" style="fill:#fff;opacity:0.9"></path><g style="opacity:0.9"><path d="M122.39,310.8c.14,0,.26,15.52.26,34.65s-.12,34.66-.26,34.66-.26-15.52-.26-34.66S122.25,310.8,122.39,310.8Z" style="fill:#263238"></path></g><g style="opacity:0.9"><path d="M389.15,284.66c.15,0,.83,19.6,1.53,43.78s1.14,43.8,1,43.81-.83-19.6-1.52-43.79S389,284.66,389.15,284.66Z" style="fill:#263238"></path></g><g style="opacity:0.2"><path d="M390,378.43c-18.92,13.36-73.21,12.66-109.75,13.9-27.7.94-54.73-2.47-81.94,2.64-12.56,2.37-26.64,5.76-39.41,6.46-12.11.66-23.46-4.52-33.94-10.55,4,8.83,13.54,15.85,30.27,15.33,17.82-.56,161.67-9.66,216.2-13.14a21.62,21.62,0,0,0,19.07-14.51Z"></path></g><g style="opacity:0.2"><path d="M182.83,384.92a4.83,4.83,0,0,0-3.77-1.23h-.15c-2.68.15-3.57,1.63-3.82,3a4.41,4.41,0,0,0,1.48,3.87c1.69,1.57,4.58,2,6.3.42A4.32,4.32,0,0,0,182.83,384.92Z"></path></g><g style="opacity:0.2"><path d="M297.37,378.37a6.17,6.17,0,0,0-4.76-1.54h0l-.19,0h0c-3.38.18-4.52,2-4.84,3.75a5.44,5.44,0,0,0,1.88,4.81c2.14,2,5.8,2.44,8,.52A5.29,5.29,0,0,0,297.37,378.37Z"></path></g><g style="opacity:0.2"><path d="M232.62,341.6a6.21,6.21,0,0,0-4.77-1.53h-.19c-3.39.18-4.52,2-4.84,3.75a5.41,5.41,0,0,0,1.88,4.8c2.14,2,5.8,2.45,8,.53A5.31,5.31,0,0,0,232.62,341.6Z"></path></g><g style="opacity:0.2"><path d="M151.1,310.62a4.14,4.14,0,0,0-4,0l0,0-.12.07,0,0c-2.37,1.15-2.49,3.19-2.08,4.88a6.31,6.31,0,0,0,3.15,3.92c2.27,1.2,5.08.59,5.93-1.83S153.32,311.84,151.1,310.62Z"></path></g><g style="opacity:0.2"><path d="M346.06,297.66a3.05,3.05,0,0,0-2.38-.77h-.1a2.27,2.27,0,0,0-2.42,1.88,2.73,2.73,0,0,0,.94,2.4,3.11,3.11,0,0,0,4,.26A2.64,2.64,0,0,0,346.06,297.66Z"></path></g><g style="opacity:0.2"><path d="M314.11,379.1a1,1,0,0,0-1.07-.66H313c-.76.08-1,.88-1.09,1.63a3.76,3.76,0,0,0,.43,2.09c.48.86,1.3,1.07,1.79.23A3.94,3.94,0,0,0,314.11,379.1Z"></path></g><g style="opacity:0.2"><path d="M189.27,385.7a1.82,1.82,0,0,0-.34-1.44h0l0,0h0a1.34,1.34,0,0,0-1.71-.64,1.66,1.66,0,0,0-.95,1.23,1.83,1.83,0,0,0,1.1,2.1A1.62,1.62,0,0,0,189.27,385.7Z"></path></g><g style="opacity:0.2"><path d="M280.3,385.8a1.8,1.8,0,0,0-.34-1.45h0l0-.05h0a1.35,1.35,0,0,0-1.71-.63,1.64,1.64,0,0,0-.94,1.22,1.81,1.81,0,0,0,1.09,2.1A1.62,1.62,0,0,0,280.3,385.8Z"></path></g><g style="opacity:0.2"><path d="M242.09,340.05a1.8,1.8,0,0,0-.33-1.45h0l0,0v0a1.33,1.33,0,0,0-1.7-.63,1.63,1.63,0,0,0-1,1.23,1.8,1.8,0,0,0,1.09,2.09A1.6,1.6,0,0,0,242.09,340.05Z"></path></g><g style="opacity:0.2"><path d="M318.39,374.41a1.79,1.79,0,0,0-.34-1.44h0l0-.05h0a1.35,1.35,0,0,0-1.71-.63,1.64,1.64,0,0,0-.94,1.22,1.81,1.81,0,0,0,1.09,2.1A1.62,1.62,0,0,0,318.39,374.41Z"></path></g><path d="M275.37,322.15c.08,1.45-12.44,3.31-27.92,4.66s-28.12,1.69-28.3.25S231.43,323,247,321.63,275.29,320.73,275.37,322.15Z" style="fill:#fff"></path><path d="M294.62,321c.11,1.43-2.64,2.8-6.12,3.06s-6.41-.69-6.51-2.12,2.63-2.81,6.12-3.07S294.51,319.59,294.62,321Z" style="fill:#fff"></path><path d="M265.54,361.52c.18,1.41-14.33,4.36-32.5,5.5s-32.93.05-32.93-1.36,14.61-2.69,32.6-3.84S265.36,360.07,265.54,361.52Z" style="fill:#fff"></path><g style="opacity:0.2"><path d="M122.5,338.41c12,5.65,26,2,39.06-.12,33.94-5.61,68.91-.62,103-5.55,14.12-2,28-5.78,42.29-6.19,14.41-.42,28.79,2.59,43.18,1.7,8.73-.53,15.73.24,23.81-3.08-1.71-4.63-14.28-2.21-23.54-1.71-29.11,1.58-54.14,3.09-83.21,5.13-48.8,3.43-95.65,5.25-144.45,9"></path></g><g style="opacity:0.2"><path d="M352.21,363.25c-29.13,1.2-54.18,2.38-83.28,4-48.84,2.79-95.81,4.78-144.66,7.91h0c11.91,5.81,26,2.39,39.07.4,34-5.16,68.9.28,103-4.2,14.14-1.85,28.11-5.41,42.37-5.63s28.75,3,43.16,2.27c8.72-.42,15.72.44,23.85-2.77C374.08,360.62,361.47,362.87,352.21,363.25Z"></path></g><g style="opacity:0.30000000000000004"><path d="M394.88,254.89c-.52-5.36-102.16-62-111.28-67.55-6.82-4.13-14.56-1.68-18.85.79-36.91,21.28-123.47,75.82-130.94,81-4.11,2.84-9.07,5-11.31,6.76l.24,17.85-.07,7.93c2.09,5.71,5.51,9.72,11.47,8.53,6.48-1.29,10.28-8.72,16.71-10.22,7.41-1.74,13.94,5,18,11.52s8.33,14.08,15.81,15.49c6.75,1.26,13.29-3.3,17.56-8.68s7.25-11.77,12.1-16.62c9.14-9.12,23.4-11.11,36.16-9.17s24.74,7.21,37.16,10.72,26.11,5.17,37.94,0c7.42-3.24,14.06-9.1,22.16-9.46,10.85-.49,20.46,9.19,31.24,7.88a15,15,0,0,0,10.56-5.79l-.38-14C391.07,273.48,395.76,264,394.88,254.89Z"></path></g><path d="M394.88,243.32c.88,9.14.75,23-1.2,31.37S387.5,289,378.94,290.08c-10.78,1.31-20.39-8.36-31.24-7.88-8.1.36-14.74,6.23-22.16,9.46-11.84,5.15-25.53,3.49-37.94,0s-24.4-8.78-37.16-10.72-27,.05-36.16,9.17c-4.85,4.85-7.82,11.25-12.1,16.63s-10.81,9.93-17.56,8.67c-7.48-1.4-11.79-9-15.81-15.49s-10.55-13.26-18-11.52c-6.43,1.51-10.23,8.93-16.71,10.22-6,1.19-11.81-3.64-13.9-9.36-1.35-3.68-1.77-8.59-1.7-13.23a15.07,15.07,0,0,1,5.85-11.64c2.24-1.73,5.31-4,9.42-6.83,7.47-5.16,94-59.7,130.94-81,4.29-2.47,12-4.92,18.85-.79C292.72,181.29,394.36,238,394.88,243.32Z" style="fill:#FF725E"></path><g style="opacity:0.9"><path d="M394.88,243.32c.88,9.14.75,23-1.2,31.37S387.5,289,378.94,290.08c-10.78,1.31-20.39-8.36-31.24-7.88-8.1.36-14.74,6.23-22.16,9.46-11.84,5.15-25.53,3.49-37.94,0s-24.4-8.78-37.16-10.72-27,.05-36.16,9.17c-4.85,4.85-7.82,11.25-12.1,16.63s-10.81,9.93-17.56,8.67c-7.48-1.4-11.79-9-15.81-15.49s-10.55-13.26-18-11.52c-6.43,1.51-10.23,8.93-16.71,10.22-6,1.19-11.81-3.64-13.9-9.36-1.35-3.68-1.77-8.59-1.7-13.23a15.07,15.07,0,0,1,5.85-11.64c2.24-1.73,5.31-4,9.42-6.83,7.47-5.16,94-59.7,130.94-81,4.29-2.47,12-4.92,18.85-.79C292.72,181.29,394.36,238,394.88,243.32Z" style="fill:#fff"></path></g><path d="M145.25,258a3.55,3.55,0,0,0,2.18,6.62c50.41-3.7,196.16-17.48,225.47-20.26a1.62,1.62,0,0,0,.71-3c-17.37-9.94-80.41-45.92-96.24-53.8a7.84,7.84,0,0,0-7.31.18Z" style="fill:#fff;opacity:0.30000000000000004"></path><path d="M298.05,258.66c.14,1.43-31.88,5.77-71.51,9.69s-71.88,5.93-72,4.5,31.87-5.77,71.51-9.69S297.91,257.23,298.05,258.66Z" style="fill:#fff"></path><path d="M346,255.79c.36,2.11-3.59,4.55-8.89,4.84s-9.48-1.7-9.36-3.84,4.13-3.69,8.93-4S345.66,253.65,346,255.79Z" style="fill:#fff"></path><path d="M193.66,299.34c-1.61-.88-3.56.06-5.39.27a9.81,9.81,0,0,1-6.35-1.81c-1.89-1.22-3.7-3.16-5.48-4.53a3.07,3.07,0,0,0-2.38-.62c-.79.18-1.24.87-.76,2.11,2,3.07,4.13,6.18,7,8.54s6.59,3.88,10.22,3.22a5.88,5.88,0,0,0,4.2-2.67A3.39,3.39,0,0,0,193.66,299.34Z" style="fill:#fff"></path><path d="M129.07,288.92a6.71,6.71,0,0,1-.89-3.14,16.9,16.9,0,0,0-.4-3.27,3.76,3.76,0,0,0-2-2.5,2,2,0,0,0-.87-.11,2.68,2.68,0,0,0-2.39,2.64,17.47,17.47,0,0,0,2.6,10.62c1.09,1.57,2.75,2.95,4.78,2.67a2.66,2.66,0,0,0,2.35-2.44C132.31,291.44,130.1,290.49,129.07,288.92Z" style="fill:#fff"></path><path d="M380.86,243.26a3.56,3.56,0,0,0-1.49-1.21c-9.36-5.07-29-14-29-14s14.5,8.79,21.39,12.38a2,2,0,0,1,1.1,1.76c-.05,1.26-1.34,1.56-2.4,1.68-16,1.92-31.92,2.66-47.87,4.57,0,0,17.22,1.45,32.21,0s22.74-1,25.27-2.56C381.43,245,381.27,244,380.86,243.26Z" style="fill:#fff"></path><g style="opacity:0.30000000000000004"><path d="M341,225.52c-.83-3.14-4.15-4.9-7.24-5.9-7.16-2.34-14.8-2.71-22.32-3-32.41-1.25-65.81-1.18-95.94,10.8l-15.43-.59c1.91,17.49,37.24,22.89,56.33,24.25s38.27-1.67,56.77-6.56c7.93-2.09,15.93-4.6,22.6-9.39C339,232.86,342,229.28,341,225.52Z"></path></g><path d="M333.89,223.24a25.84,25.84,0,0,0-25-29.9c4.21-12.14-1.37-26.91-12.56-33.24-4.26-2.41-9.13-3.68-13.25-6.33s-7.52-7.46-6.37-12.22c1.11-4.57,6.11-8,4.8-12.94a7.48,7.48,0,0,0-5-5c-4.23-1.41-8.49,0-12.42,1.72-10,4.26-19.47,10.35-26,19s-9.75,20.26-6.8,30.72a22.08,22.08,0,0,0-21.7,26.37,13.6,13.6,0,0,0-10.46,8.63,18.6,18.6,0,0,0-1,5.07A24.23,24.23,0,0,0,209,236.82c8.92,6,25.52,12.36,54.62,9.72C315,241.87,333.89,223.24,333.89,223.24Z" style="fill:#FF725E"></path><g style="opacity:0.9"><path d="M333.89,223.24a25.84,25.84,0,0,0-25-29.9c4.21-12.14-1.37-26.91-12.56-33.24-4.26-2.41-9.13-3.68-13.25-6.33s-7.52-7.46-6.37-12.22c1.11-4.57,6.11-8,4.8-12.94a7.48,7.48,0,0,0-5-5c-4.23-1.41-8.49,0-12.42,1.72-10,4.26-19.47,10.35-26,19s-9.75,20.26-6.8,30.72a22.08,22.08,0,0,0-21.7,26.37,13.6,13.6,0,0,0-10.46,8.63,18.6,18.6,0,0,0-1,5.07A24.23,24.23,0,0,0,209,236.82c8.92,6,25.52,12.36,54.62,9.72C315,241.87,333.89,223.24,333.89,223.24Z" style="fill:#fff"></path></g><g style="opacity:0.1"><path d="M231.3,175.13c-1.33,9.88,7.91,20.45,17.34,25s20.42,4.43,30.88,3.63,21.12-2.14,31.31.34,21.26,8.77,23.06,19.1c-7.36-5.7-18.09-7-27.4-7.44s-18.58.93-27.84,2a92.07,92.07,0,0,1-27.07-1c-9.18-1.59-16.65-4.83-22.39-12.17s-7.2-20.94-2.57-29A13.89,13.89,0,0,1,231.3,175.13Z" style="fill:#FF725E"></path></g><g style="opacity:0.1"><path d="M293.14,181.41C279.11,178.9,271.6,177,265,170c-4.58-4.89-5.6-12.33-4.14-18.87s5.05-12.39,8.81-17.94a41.65,41.65,0,0,0-20.26,30.61c-.62,5.15-.21,10.59,2.32,15.12,4.36,7.79,12.51,9.87,21.36,11,15.56,2,30.62-3.39,36.42,3.39h0C309.1,186.27,300.1,182.65,293.14,181.41Z" style="fill:#FF725E"></path></g><g style="opacity:0.1"><path d="M291.49,227.28c-7.88.12-15.67,1.65-23.51,2.45-11.7,1.2-23.83.71-34.73-3.71s-20.43-13.2-23.68-24.51l-2.41.68c-1.63,12.48,3.74,22,13.55,29.88s23,11,35.51,9.78c12-1.17,23.65-4.45,35.67-5.42a23,23,0,0,1,12.4,2.29l11.11-4.4C309,229.77,299.37,227.16,291.49,227.28Z" style="fill:#FF725E"></path></g><path d="M216,205.63c-.65.22-1.93-1.27-2.69-4.24A19.53,19.53,0,0,1,222,180.56c2.66-1.54,4.61-1.67,4.91-1.06s-.9,1.94-2.57,3.91A28.6,28.6,0,0,0,217,201.06C216.76,203.63,216.73,205.41,216,205.63Z" style="fill:#fff"></path><path d="M245.29,142.79c.83.74-.31,3.28-1.7,7.13a45.48,45.48,0,0,0-1.19,30.33c1.08,3.95,2,6.57,1.12,7.25s-3.44-.92-6.12-4.9a28.09,28.09,0,0,1-3.52-7.61,31.84,31.84,0,0,1,.81-20.49,28.19,28.19,0,0,1,4.1-7.31C241.78,143.43,244.53,142.09,245.29,142.79Z" style="fill:#fff"></path><path d="M202.1,221.94c-.66.21-1.67-.65-2.35-2.5a10.26,10.26,0,0,1-.59-3.36,13.21,13.21,0,0,1,2.49-7.9,10.61,10.61,0,0,1,2.41-2.42c1.62-1.12,2.95-1.24,3.36-.69s0,1.68-.58,3.11a39.61,39.61,0,0,0-3.43,10.88C203.1,220.58,202.8,221.72,202.1,221.94Z" style="fill:#fff"></path><path d="M194.68,242.94c-.33.13-2.87.26-2.52,2.87s-.18,6.71,2.09,6,4.36-2.36,3.75-4.41S196.59,242.16,194.68,242.94Z" style="fill:#FF725E"></path><path d="M232.54,219.42c-.06.36-1.31,2.58,1.09,3.67s5.59,3.73,6.2,1.44.33-4.95-1.73-5.52S232.9,217.39,232.54,219.42Z" style="fill:#FF725E"></path><path d="M287.59,163c-.06.36-1.31,2.58,1.09,3.68s5.59,3.72,6.21,1.43.32-4.95-1.74-5.52S288,161,287.59,163Z" style="fill:#FF725E"></path><path d="M263.54,155.13c-.06.35-1.31,2.57,1.09,3.67s5.59,3.72,6.2,1.43.33-4.95-1.73-5.52S263.9,153.09,263.54,155.13Z" style="fill:#FF725E"></path><path d="M259.43,200.68c.2.16,1.16,1.65,2.62.54s4.13-2.23,2.92-3.36-2.94-1.82-4-.74S258.3,199.8,259.43,200.68Z" style="fill:#FF725E"></path><path d="M280.92,172.15c.2.16,1.16,1.65,2.62.53s4.13-2.22,2.92-3.35-2.94-1.82-4-.74S279.78,171.27,280.92,172.15Z" style="fill:#FF725E"></path><path d="M261.59,167.78c.19.15,1.15,1.65,2.62.53s4.12-2.22,2.92-3.35-2.95-1.83-4-.75S260.45,166.89,261.59,167.78Z" style="fill:#FF725E"></path><path d="M208.58,244.33c-.43.11-6.1,1.44-4.19,3s2.44,2,4.19.81S209.53,244.09,208.58,244.33Z" style="fill:#FF725E"></path><path d="M252.05,219.21c-.43.11-6.1,1.44-4.18,3s2.44,2,4.18.81S253,219,252.05,219.21Z" style="fill:#FF725E"></path><path d="M280,220.16c-.43.11-6.1,1.44-4.18,3s2.44,2,4.18.8S281,219.91,280,220.16Z" style="fill:#FF725E"></path><path d="M255.93,192.12c-.43.11-6.1,1.44-4.18,3s2.44,2,4.18.81S256.88,191.87,255.93,192.12Z" style="fill:#FF725E"></path><path d="M216.53,229.92c-.43.11-6.1,1.44-4.18,3s2.44,2,4.18.8S217.48,229.67,216.53,229.92Z" style="fill:#FF725E"></path><path d="M273.82,217.84c-.26.06-3.66.86-2.51,1.81s1.46,1.21,2.51.48S274.39,217.69,273.82,217.84Z" style="fill:#FF725E"></path><path d="M238.74,248.74c-.43.11-6.1,1.44-4.18,3s2.44,2,4.18.8S239.69,248.5,238.74,248.74Z" style="fill:#FF725E"></path><path d="M338.35,229.15c-.43.11-6.1,1.44-4.19,3s2.44,2,4.19.81S339.3,228.91,338.35,229.15Z" style="fill:#FF725E"></path><path d="M250.05,174c-.43.11-6.1,1.44-4.18,3s2.44,2,4.18.8S251,173.71,250.05,174Z" style="fill:#FF725E"></path><path d="M260.22,137.73c-.43.11-6.1,1.44-4.18,3s2.44,2,4.18.8S261.17,137.48,260.22,137.73Z" style="fill:#FF725E"></path><path d="M293.81,193.19c-.43.11-6.1,1.44-4.18,3s2.44,2,4.18.81S294.76,193,293.81,193.19Z" style="fill:#FF725E"></path><path d="M201.66,250.87c-1.19,0-2.41.53-1.89,1.31a1.25,1.25,0,0,0,1.89.52C202.47,252.27,201.66,250.87,201.66,250.87Z" style="fill:#FF725E"></path><path d="M355.29,235.93c-1.19,0-2.41.52-1.89,1.31a1.26,1.26,0,0,0,1.89.52C356.1,237.32,355.29,235.93,355.29,235.93Z" style="fill:#FF725E"></path><path d="M274.43,226.21c-1.19,0-2.41.53-1.88,1.31a1.25,1.25,0,0,0,1.88.52C275.25,227.61,274.43,226.21,274.43,226.21Z" style="fill:#FF725E"></path><path d="M216.17,249.84c-1.19,0-2.41.53-1.89,1.31a1.26,1.26,0,0,0,1.89.52C217,251.24,216.17,249.84,216.17,249.84Z" style="fill:#FF725E"></path><path d="M340.17,236.73c-1.19,0-2.41.52-1.89,1.31a1.26,1.26,0,0,0,1.89.52C341,238.12,340.17,236.73,340.17,236.73Z" style="fill:#FF725E"></path><path d="M238.83,213.9c-1.19,0-2.41.52-1.88,1.31a1.25,1.25,0,0,0,1.88.52C239.65,215.29,238.83,213.9,238.83,213.9Z" style="fill:#FF725E"></path><path d="M225.92,200.42c-1.19,0-2.41.53-1.88,1.31a1.25,1.25,0,0,0,1.88.52C226.74,201.82,225.92,200.42,225.92,200.42Z" style="fill:#FF725E"></path><path d="M201.77,246.59c-.8,0-1.63.36-1.28.89a.86.86,0,0,0,1.28.35C202.32,247.54,201.77,246.59,201.77,246.59Z" style="fill:#FF725E"></path><path d="M323.56,240.92c-.81,0-1.63.36-1.28.89a.86.86,0,0,0,1.28.35C324.11,241.87,323.56,240.92,323.56,240.92Z" style="fill:#FF725E"></path><path d="M309.46,225.44c-.8,0-1.63.35-1.27.88a.84.84,0,0,0,1.27.35C310,226.38,309.46,225.44,309.46,225.44Z" style="fill:#FF725E"></path><path d="M249.16,192.1c-.8,0-1.63.35-1.27.88a.85.85,0,0,0,1.27.36C249.71,193,249.16,192.1,249.16,192.1Z" style="fill:#FF725E"></path><path d="M280.54,165.14c-.8,0-1.63.36-1.28.89a.86.86,0,0,0,1.28.35C281.09,166.09,280.54,165.14,280.54,165.14Z" style="fill:#FF725E"></path><path d="M266.69,145.27c-.8,0-1.63.35-1.27.88a.85.85,0,0,0,1.27.36C267.24,146.21,266.69,145.27,266.69,145.27Z" style="fill:#FF725E"></path><path d="M247,157.44c-.8,0-1.62.35-1.27.88a.85.85,0,0,0,1.27.36C247.57,158.38,247,157.44,247,157.44Z" style="fill:#FF725E"></path><path d="M228.23,217.34c-.81,0-1.63.36-1.28.89a.86.86,0,0,0,1.28.35C228.78,218.28,228.23,217.34,228.23,217.34Z" style="fill:#FF725E"></path><path d="M179.5,253.55l-1.74.43s-.7.69-.44,1.3a1.42,1.42,0,0,0,1.06,1c.33,0,.86.26,1.12,0s.7-.09.87-.52a2.24,2.24,0,0,0,0-1.31C180.28,254.06,179.5,253.55,179.5,253.55Z" style="fill:#FF725E"></path><path d="M311.7,218.46l-1.74.43s-.7.7-.44,1.31a1.4,1.4,0,0,0,1.06,1c.34,0,.86.27,1.12,0s.7-.08.87-.52a2.17,2.17,0,0,0,0-1.31C312.48,219,311.7,218.46,311.7,218.46Z" style="fill:#FF725E"></path><path d="M245.59,230.55l-1.74.43s-.7.7-.44,1.31a1.42,1.42,0,0,0,1.06,1c.34,0,.86.27,1.12,0s.7-.08.87-.52a2.17,2.17,0,0,0,0-1.31C246.38,231.07,245.59,230.55,245.59,230.55Z" style="fill:#FF725E"></path><path d="M184.34,240.58c-.21.39-1.05,2.85,1,3.21a5.91,5.91,0,0,0,2.77-.29,2.45,2.45,0,0,0,1.68-2.33v-.26a2.38,2.38,0,0,0-1.27-2.14.69.69,0,0,0-.3-.1A3.5,3.5,0,0,0,184.34,240.58Z" style="fill:#FF725E"></path><path d="M314.73,223.55c-.21.39-1,2.85,1,3.21a5.93,5.93,0,0,0,2.77-.29,2.45,2.45,0,0,0,1.67-2.33v-.25a2.38,2.38,0,0,0-1.27-2.15.82.82,0,0,0-.29-.1A3.51,3.51,0,0,0,314.73,223.55Z" style="fill:#FF725E"></path><path d="M298.76,198.59c-.22.38-1.05,2.85,1,3.21a5.8,5.8,0,0,0,2.77-.3,2.44,2.44,0,0,0,1.68-2.32v-.26a2.4,2.4,0,0,0-1.28-2.15.76.76,0,0,0-.29-.1A3.49,3.49,0,0,0,298.76,198.59Z" style="fill:#FF725E"></path><path d="M247.14,148c-.21.38-1,2.85,1,3.21a5.8,5.8,0,0,0,2.77-.3,2.44,2.44,0,0,0,1.68-2.33v-.25a2.39,2.39,0,0,0-1.27-2.15.86.86,0,0,0-.3-.1A3.49,3.49,0,0,0,247.14,148Z" style="fill:#FF725E"></path><path d="M222.67,208.7c-.21.39-1,2.85,1.05,3.21a5.94,5.94,0,0,0,2.77-.29,2.45,2.45,0,0,0,1.67-2.33V209a2.38,2.38,0,0,0-1.27-2.15.8.8,0,0,0-.3-.1A3.5,3.5,0,0,0,222.67,208.7Z" style="fill:#FF725E"></path><path d="M245.15,197.2c.21.09,1.49.33,1.29-1.08a5.46,5.46,0,0,0-.62-1.77,1.28,1.28,0,0,0-1.36-.81l-.12,0a1.15,1.15,0,0,0-.76,1.1.42.42,0,0,0,0,.2A2.86,2.86,0,0,0,245.15,197.2Z" style="fill:#FF725E"></path><path d="M245.71,166.9c.21.09,1.49.34,1.29-1.07a5.38,5.38,0,0,0-.62-1.77,1.28,1.28,0,0,0-1.36-.81l-.12,0a1.14,1.14,0,0,0-.76,1.1.42.42,0,0,0,0,.2A2.83,2.83,0,0,0,245.71,166.9Z" style="fill:#FF725E"></path><path d="M262.3,150.4c.21.09,1.49.33,1.29-1.08a5.71,5.71,0,0,0-.62-1.77,1.29,1.29,0,0,0-1.36-.81l-.12,0a1.14,1.14,0,0,0-.76,1.09.72.72,0,0,0,0,.21A2.85,2.85,0,0,0,262.3,150.4Z" style="fill:#FF725E"></path><path d="M277.39,161.68c.22.09,1.49.33,1.29-1.08a5.46,5.46,0,0,0-.62-1.77,1.27,1.27,0,0,0-1.36-.8l-.12,0a1.14,1.14,0,0,0-.76,1.09.46.46,0,0,0,0,.21A2.84,2.84,0,0,0,277.39,161.68Z" style="fill:#FF725E"></path><path d="M166,253.79c-.61.38-3.13,1.34-2.35,3.35s4.88.42,4.62-1.14S167.62,252.82,166,253.79Z" style="fill:#FF725E"></path><path d="M198.1,236.58c-.34.11-1,5,1.12,5.75s3.6.35,3.63-1.31S203.09,234.92,198.1,236.58Z" style="fill:#FF725E"></path><path d="M221.7,251.67c0,.37,4.12,3,5.7,1.37s1.81-3.14.31-3.85S222.26,246.45,221.7,251.67Z" style="fill:#FF725E"></path><path d="M327.42,240.29c0,.36,4.12,2.94,5.7,1.36s1.81-3.13.31-3.84S328,235.06,327.42,240.29Z" style="fill:#FF725E"></path><path d="M205.05,241c.07.8.88,1.74,1.75,1.22s1.48-1.74.78-2.09S204.88,238.84,205.05,241Z" style="fill:#FF725E"></path><path d="M215.12,245.7c.06.8.87,1.74,1.74,1.22s1.48-1.74.79-2.09S215,243.52,215.12,245.7Z" style="fill:#FF725E"></path><path d="M327.52,233.23c.06.8.87,1.75,1.74,1.22s1.48-1.74.78-2.09S327.34,231.05,327.52,233.23Z" style="fill:#FF725E"></path><path d="M276.65,241.79c.07.81.87,1.75,1.75,1.22s1.48-1.74.78-2.09S276.48,239.62,276.65,241.79Z" style="fill:#FF725E"></path><path d="M297.73,224.11c.06.8.87,1.74,1.74,1.22s1.48-1.74.78-2.09S297.55,221.93,297.73,224.11Z" style="fill:#FF725E"></path><path d="M274,168.25c.07.8.88,1.74,1.75,1.22s1.48-1.74.78-2.09S273.83,166.07,274,168.25Z" style="fill:#FF725E"></path><path d="M252.42,156.22c.06.8.87,1.74,1.74,1.22s1.48-1.74.78-2.09S252.24,154,252.42,156.22Z" style="fill:#FF725E"></path><g style="opacity:0.9"><path d="M198.13,215.2a10.37,10.37,0,0,1,.09-1.29,17,17,0,0,1,.81-3.68,13.19,13.19,0,0,1,3.26-5.11,13.59,13.59,0,0,1,7.29-3.75l-.11.16a22,22,0,0,1-.1-8,22.62,22.62,0,0,1,3.34-8.61,21.79,21.79,0,0,1,7.58-7.06,22.55,22.55,0,0,1,11-3l-.21.27c-3.05-10.56.28-23.65,8.79-33.37a58.3,58.3,0,0,1,15.49-12.43,83.59,83.59,0,0,1,9.31-4.55,28.75,28.75,0,0,1,5-1.65,13.47,13.47,0,0,1,5.37-.17,8.66,8.66,0,0,1,5.64,3.37,6.89,6.89,0,0,1,1.19,3.11,7.15,7.15,0,0,1-.44,3.28,36.91,36.91,0,0,1-3.13,5.59,9.56,9.56,0,0,0-1.6,5.79,11.05,11.05,0,0,0,2.26,5.51,16.36,16.36,0,0,0,4.38,4c3.36,2.12,7.12,3.34,10.6,5a27,27,0,0,1,9,6.66,29.86,29.86,0,0,1,5.51,9.11,28.24,28.24,0,0,1,.5,19l-.18-.26a26.5,26.5,0,0,1,9.51,2,26.8,26.8,0,0,1,7.35,4.64,25.47,25.47,0,0,1,7.39,11.65,25.88,25.88,0,0,1,1.13,8.7,19.93,19.93,0,0,1-.35,3.05s0-.27.08-.78.12-1.27.16-2.27a26.57,26.57,0,0,0-1.22-8.64,25.34,25.34,0,0,0-7.4-11.48,26.43,26.43,0,0,0-7.27-4.55,25.92,25.92,0,0,0-9.39-2h-.26l.09-.25a28.38,28.38,0,0,0-14.91-34.2c-3.44-1.61-7.22-2.83-10.66-5a16.91,16.91,0,0,1-4.52-4.13,11.5,11.5,0,0,1-2.36-5.77,8.58,8.58,0,0,1,.34-3.18,13.89,13.89,0,0,1,1.32-2.91,36.59,36.59,0,0,0,3.1-5.5,6.76,6.76,0,0,0,.4-3.05,6.28,6.28,0,0,0-1.1-2.87,8.12,8.12,0,0,0-5.31-3.16c-3.46-.64-6.93.48-10.1,1.79a82.51,82.51,0,0,0-9.25,4.52,57.73,57.73,0,0,0-15.37,12.3c-8.43,9.6-11.73,22.53-8.76,32.93l.08.27h-.28a22.11,22.11,0,0,0-10.81,2.86,21.47,21.47,0,0,0-7.48,6.92,22.22,22.22,0,0,0-3.33,8.46,21.86,21.86,0,0,0,0,7.88l0,.14-.13,0a13.39,13.39,0,0,0-7.19,3.64,13.16,13.16,0,0,0-3.27,5,18,18,0,0,0-.87,3.64c0,.41-.09.72-.12,1S198.13,215.2,198.13,215.2Z" style="fill:#263238"></path></g><g style="opacity:0.9"><path d="M197.74,217.19a1.35,1.35,0,0,1-.25.18l-.74.5-2.89,1.87-10.66,6.8-35.3,22.27c-6.91,4.33-13.51,8.44-19.14,12.67a59.29,59.29,0,0,0-7.53,6.55,11.74,11.74,0,0,0-2.32,3.77,15.73,15.73,0,0,0-.89,4,26.38,26.38,0,0,0,.44,7.12,46.15,46.15,0,0,0,1.34,5.26c.44,1.43.83,2.52,1.1,3.25.12.35.22.63.3.85l.09.29a1.16,1.16,0,0,1-.14-.27l-.35-.83c-.3-.73-.72-1.81-1.2-3.23a44.1,44.1,0,0,1-1.42-5.26,26.34,26.34,0,0,1-.53-7.21,16.15,16.15,0,0,1,.88-4.14,12.21,12.21,0,0,1,2.39-3.93,59.85,59.85,0,0,1,7.55-6.64c5.65-4.27,12.25-8.39,19.15-12.72L183,226.23c4.52-2.79,8.18-5.07,10.75-6.66l2.94-1.79.77-.45A1.13,1.13,0,0,1,197.74,217.19Z" style="fill:#263238"></path></g><g style="opacity:0.9"><path d="M388.51,285.45s.29-.3.77-.92a13.56,13.56,0,0,0,1.7-3,50.22,50.22,0,0,0,3-12.26,126.2,126.2,0,0,0,1.18-18.76c0-1.77-.09-3.59-.29-5.42-.05-.45-.12-.91-.21-1.36a2.33,2.33,0,0,0-.17-.61,3.47,3.47,0,0,0-.37-.54,16.37,16.37,0,0,0-2-2c-3-2.43-6.3-4.65-9.71-6.91-6.85-4.47-13.52-8.51-19.6-12.16s-11.6-6.86-16.24-9.56l-11-6.37-3-1.73-.77-.47a1.07,1.07,0,0,1-.26-.17,1.29,1.29,0,0,1,.28.13l.8.41,3,1.66c2.63,1.45,6.42,3.56,11.08,6.22s10.2,5.85,16.3,9.47,12.79,7.65,19.65,12.14a115.27,115.27,0,0,1,9.75,7,15.41,15.41,0,0,1,2.09,2,4.55,4.55,0,0,1,.43.62,3.57,3.57,0,0,1,.22.74c.09.48.15.94.2,1.41.21,1.86.25,3.68.28,5.46a123.1,123.1,0,0,1-1.29,18.82,47.8,47.8,0,0,1-3.24,12.29,12.85,12.85,0,0,1-1.79,3A6.06,6.06,0,0,1,388.51,285.45Z" style="fill:#263238"></path></g><g style="opacity:0.9"><path d="M221.93,220.61a3.73,3.73,0,0,1-.86-.45,17.91,17.91,0,0,1-2.18-1.53,25.52,25.52,0,0,1-2.88-2.7,26.39,26.39,0,0,1-5-8.22,25.45,25.45,0,0,1-1.11-3.79,19,19,0,0,1-.37-2.63,3.36,3.36,0,0,1,0-1c.09,0,.21,1.37.74,3.52a27.93,27.93,0,0,0,1.2,3.7,30.12,30.12,0,0,0,2.13,4.25,30.91,30.91,0,0,0,2.82,3.83,28.23,28.23,0,0,0,2.76,2.74C220.81,219.8,222,220.53,221.93,220.61Z" style="fill:#263238"></path></g><g style="opacity:0.9"><path d="M275.4,203.42a2.57,2.57,0,0,1-.59.1c-.39,0-1,.13-1.7.19a60.83,60.83,0,0,1-6.29.23,53.05,53.05,0,0,1-9.31-.91,40.54,40.54,0,0,1-10.84-3.65,32.83,32.83,0,0,1-9.1-6.94,28.24,28.24,0,0,1-5.12-7.82,22.94,22.94,0,0,1-1.72-6.07,16.09,16.09,0,0,1-.15-1.7,2.26,2.26,0,0,1,0-.6s.11.82.35,2.27a24.61,24.61,0,0,0,1.86,5.95,28.6,28.6,0,0,0,5.13,7.65,33,33,0,0,0,9,6.8,41.77,41.77,0,0,0,10.71,3.64,55.9,55.9,0,0,0,9.21,1c2.65.07,4.79,0,6.27-.07l1.71-.09A2.3,2.3,0,0,1,275.4,203.42Z" style="fill:#263238"></path></g><g style="opacity:0.9"><path d="M293.54,189.6a10.49,10.49,0,0,1-1.74.34c-1.12.18-2.75.42-4.78.67a62.52,62.52,0,0,1-15.91.23A30.87,30.87,0,0,1,256.4,185a21.06,21.06,0,0,1-3.46-3.38c-.37-.43-.6-.82-.78-1.06s-.25-.38-.23-.39a29.92,29.92,0,0,0,4.7,4.54,31.75,31.75,0,0,0,14.55,5.66,67.73,67.73,0,0,0,15.8-.08l4.79-.5A13.39,13.39,0,0,1,293.54,189.6Z" style="fill:#263238"></path></g><g style="opacity:0.9"><path d="M305.43,213.29a10,10,0,0,1-1.58.47c-1,.26-2.52.61-4.37,1-3.7.81-8.84,1.78-14.56,2.56s-10.94,1.23-14.72,1.44c-1.89.11-3.42.17-4.48.19a10.93,10.93,0,0,1-1.64,0,9,9,0,0,1,1.63-.18l4.46-.36c3.77-.31,9-.81,14.68-1.59s10.85-1.68,14.56-2.4l4.39-.85A12,12,0,0,1,305.43,213.29Z" style="fill:#263238"></path></g><g style="opacity:0.9"><path d="M272.56,129.65a2.32,2.32,0,0,1-.26.43l-.82,1.16c-.72,1-1.77,2.44-3,4.25a72.27,72.27,0,0,0-4.11,6.55,39.29,39.29,0,0,0-3.58,8.7,26,26,0,0,0-.7,9.33,21.08,21.08,0,0,0,2.12,7.33,16.85,16.85,0,0,0,3,4.2c.87.87,1.41,1.29,1.38,1.33s-.15-.08-.42-.27a13.33,13.33,0,0,1-1.1-.91,15.64,15.64,0,0,1-3.18-4.18,20.84,20.84,0,0,1-2.28-7.44,25.91,25.91,0,0,1,.68-9.52,38.51,38.51,0,0,1,3.66-8.8,66.74,66.74,0,0,1,4.23-6.53c1.3-1.79,2.4-3.2,3.17-4.16l.9-1.11C272.43,129.76,272.54,129.64,272.56,129.65Z" style="fill:#263238"></path></g></g></svg>
