<svg width="414" height="458" viewBox="0 0 414 458" fill="none" xmlns="http://www.w3.org/2000/svg">
<path d="M171.583 28.7902C171.583 28.7902 158.634 18.915 149.776 23.6709C140.919 28.4268 148.073 34.9064 148.073 34.9064C148.073 34.9064 141.272 35.5814 142.29 37.6271C142.852 38.7156 143.308 39.8563 143.65 41.033C143.65 41.033 126.63 44.1482 127.316 48.8626C128.001 53.577 129.019 53.9612 129.019 53.9612C129.019 53.9612 119.829 56.6922 121.189 60.4304C122.549 64.1687 129.351 65.1967 129.351 65.1967C129.351 65.1967 114.035 74.3866 111.698 85.6221C109.362 96.8577 115.436 94.4693 115.436 94.4693C115.436 94.4693 105.914 102.642 109.995 107.065C114.076 111.489 118.5 110.18 118.5 110.18C118.5 110.18 113.058 122.434 115.436 125.154C117.814 127.875 120.203 127.543 120.203 127.543C120.203 127.543 102.55 138.435 109.995 146.234C117.441 154.032 123.609 146.234 123.609 146.234C123.609 146.234 117.482 159.505 124.294 161.208C131.106 162.911 132.456 161.883 132.456 161.883C132.456 161.883 124.969 169.38 138.25 171.415C151.531 173.45 152.539 171.415 152.539 171.415C152.539 171.415 149.143 177.542 154.927 180.273C160.711 183.004 164.792 176.181 164.792 176.181C164.792 176.181 166.495 179.93 174.324 179.587C182.154 179.245 183.857 175.506 183.857 175.506C183.857 175.506 188.281 184.011 193.732 180.948C199.184 177.884 200.191 175.164 200.191 175.164C201.304 176.232 202.664 177.008 204.15 177.423C205.635 177.838 207.201 177.879 208.706 177.542L214.147 176.503C214.147 176.503 220.274 180.252 225.383 177.864C230.492 175.475 229.474 171.737 229.474 171.737C229.474 171.737 235.258 175.486 239.339 173.44C243.42 171.394 243.42 169.016 243.42 169.016C243.42 169.016 248.871 171.394 251.249 167.313C251.949 166.201 252.348 164.927 252.408 163.615C252.468 162.303 252.187 160.998 251.592 159.827C251.592 159.827 258.061 160.169 258.404 158.466C258.747 156.763 254.655 152.672 254.655 152.672C254.655 152.672 263.17 160.501 262.142 148.934C261.597 142.148 259.118 135.662 254.998 130.242C254.998 130.242 260.107 132.319 260.439 129.204C260.703 127.584 260.467 125.921 259.764 124.438C259.764 124.438 266.234 125.798 268.612 116.608C269.308 114.039 269.191 111.317 268.276 108.818C267.361 106.318 265.693 104.164 263.503 102.652C263.503 102.652 271.332 98.2284 270.315 94.8224C269.297 91.4164 267.937 90.3988 267.937 90.3988C267.937 90.3988 273.035 86.9928 269.297 84.6149C266.52 82.9858 263.542 81.7256 260.439 80.8662C260.439 80.8662 269.972 80.5236 266.909 70.991C263.845 61.4584 253.638 53.6393 251.249 52.6112C248.861 51.5832 260.782 48.873 252.61 46.8273C244.437 44.7817 242.06 44.7505 242.06 44.7505C242.06 44.7505 249.214 38.6239 243.42 35.9033C237.626 33.1827 234.926 34.5741 234.926 34.5741C234.926 34.5741 237.002 29.4652 230.502 29.1225C224.002 28.7798 220.284 31.5108 220.284 31.5108C220.284 31.5108 223.015 19.2577 217.221 16.537C211.427 13.8164 201.863 25.7477 201.863 25.7477C201.863 25.7477 197.097 15.5298 194.033 18.5931C190.97 21.6564 190.97 24.0447 190.97 24.0447C190.97 24.0447 178.717 11.7915 174.293 18.2608C169.87 24.7301 171.583 28.7902 171.583 28.7902Z" fill="#272D2F" stroke="#272D2F" stroke-linecap="round" stroke-linejoin="round"/>
<path d="M278.196 266.315C278.196 266.315 288.933 303.438 291.695 309.928C294.457 316.418 293.419 322.732 281.311 326.189C269.203 329.647 261.228 321.693 258.809 311.652C256.389 301.61 244.967 270.811 244.967 270.811L278.196 266.315Z" fill="white" stroke="#272D2F" stroke-width="2" stroke-linecap="round" stroke-linejoin="round"/>
<path d="M278.196 266.315L244.967 270.811C244.967 270.811 246.556 275.1 248.674 281.008L281.654 278.194C279.671 271.434 278.196 266.315 278.196 266.315Z" fill="#272D2F" stroke="#272D2F" stroke-linecap="round" stroke-linejoin="round"/>
<path d="M102.352 266.315C102.352 266.315 82.4462 319.793 84.0973 326.283C85.7484 332.773 97.5135 340.384 110.66 337.612C123.806 334.839 127.97 312.005 128.666 309.928C129.361 307.851 139.735 269.773 139.735 269.773L102.352 266.315Z" fill="white" stroke="#272D2F" stroke-width="2" stroke-linecap="round" stroke-linejoin="round"/>
<path d="M139.735 269.773L102.352 266.315C102.352 266.315 100.193 272.109 97.3577 280.126L133.65 292.036C136.589 281.32 139.735 269.773 139.735 269.773Z" fill="#272D2F" stroke="#272D2F" stroke-linecap="round" stroke-linejoin="round"/>
<path d="M171.583 144.52C171.583 144.52 171.926 168.684 169.506 176.171C167.087 183.658 158.977 186.7 158.977 186.7C158.977 186.7 124.938 179.214 118.136 184.624C111.335 190.034 105.54 215.599 104.512 219.68C103.484 223.761 86.1326 272.099 86.1326 272.099C86.1326 272.099 100.431 275.505 110.639 278.225C120.846 280.946 133.484 282.992 133.484 282.992L137.907 324.175L120.545 376.594H261.768L239.297 318.048L244.064 276.512L292.038 269.441C292.038 269.441 271.27 215.994 265.486 203.066C259.702 190.138 254.655 181.623 244.417 181.955C234.178 182.287 225.725 186.389 221.271 187.749C218.975 188.554 216.546 188.906 214.116 188.788C211.971 186.855 210.257 184.492 209.086 181.853C207.914 179.214 207.31 176.358 207.314 173.471C207.314 163.596 206.972 154.78 206.972 154.78C200.693 156.366 194.106 156.251 187.886 154.448C181.667 152.645 176.04 149.218 171.583 144.52Z" fill="#FFC529" stroke="#272D2F" stroke-linecap="round" stroke-linejoin="round"/>
<path d="M194.428 228.237C218.446 225.371 247.387 208.154 263.035 197.759C258.155 187.863 253.15 181.664 244.417 181.955C234.199 182.298 225.725 186.389 221.271 187.749C218.975 188.554 216.546 188.906 214.116 188.788C211.971 186.855 210.257 184.492 209.086 181.853C207.914 179.214 207.31 176.358 207.314 173.471C207.314 163.596 206.972 154.78 206.972 154.78C200.693 156.366 194.106 156.251 187.886 154.448C181.667 152.645 176.04 149.218 171.583 144.52C171.583 144.52 171.926 168.684 169.506 176.171C167.087 183.658 158.977 186.7 158.977 186.7C158.977 186.7 124.938 179.214 118.136 184.624C115.987 186.337 113.983 190.044 112.124 194.437C127.97 205.838 167.222 231.487 194.428 228.237Z" fill="white" stroke="#272D2F" stroke-width="2" stroke-linecap="round" stroke-linejoin="round"/>
<path d="M170.212 149.474C170.212 149.474 186.712 170.242 192.611 171.083C198.509 171.924 208.716 157.324 208.716 157.324C208.716 157.324 185.539 163.617 170.212 149.474Z" fill="#272D2F" stroke="#272D2F" stroke-linecap="round" stroke-linejoin="round"/>
<path d="M153.868 132.942C153.868 132.942 154.553 136.691 156.983 138.051C159.413 139.411 163.442 138.051 163.442 138.051C163.442 138.051 169.236 149.962 177.398 155.704C185.56 161.446 191.011 166.265 199.869 163.876C208.727 161.488 216.546 149.577 220.637 143.451C223.704 138.78 225.896 133.59 227.106 128.134C227.792 125.071 227.792 108.737 226.068 98.5191C224.344 88.3012 214.49 74.6981 208.363 69.9318C202.237 65.1655 196.11 63.1199 185.902 68.8934C175.695 74.6669 166.495 84.2099 160.711 99.869C154.927 115.528 153.868 123.752 153.868 132.942Z" fill="white" stroke="#272D2F" stroke-linecap="round" stroke-linejoin="round"/>
<path d="M187.574 108.093C187.574 108.093 182.465 103.67 175.996 108.436" stroke="#272D2F" stroke-width="2" stroke-linecap="round" stroke-linejoin="round"/>
<path d="M205.611 106.058C205.611 106.058 212.081 102.652 216.162 106.39" stroke="#272D2F" stroke-width="2" stroke-linecap="round" stroke-linejoin="round"/>
<path d="M188.935 92.434C188.935 92.434 180.077 88.052 172.621 98.2284" stroke="#272D2F" stroke-width="2" stroke-linecap="round" stroke-linejoin="round"/>
<path d="M203.566 91.7592C203.566 91.7592 212.081 86.3075 216.504 95.4974" stroke="#272D2F" stroke-width="2" stroke-linecap="round" stroke-linejoin="round"/>
<path d="M205.611 110.824C205.611 110.824 206.286 115.248 200.502 117.626" stroke="#272D2F" stroke-linecap="round" stroke-linejoin="round"/>
<path d="M185.186 118.986C185.186 118.986 185.186 127.833 180.762 131.582" stroke="#272D2F" stroke-linecap="round" stroke-linejoin="round"/>
<path d="M185.186 124.396C188.9 126.286 192.944 127.439 197.097 127.792C204.251 128.477 207.989 126.099 210.378 123.036" stroke="#272D2F" stroke-width="2" stroke-linecap="round" stroke-linejoin="round"/>
<path d="M201.53 70.316C201.53 70.316 213.098 72.694 219.183 90.3988C223.613 103.341 226.022 116.888 226.328 130.564C226.328 130.564 235.185 126.473 233.14 107.418C231.094 88.3635 226.328 78.1456 218.841 71.6763C211.354 65.2071 204.552 63.5041 202.507 64.1894C200.461 64.8748 195.404 64.8644 201.53 70.316Z" fill="#FFC529" stroke="#272D2F" stroke-linecap="round" stroke-linejoin="round"/>
<path d="M203.566 70.6587C203.566 70.6587 193.524 69.3296 185.529 74.0543C174.345 80.669 165.664 94.6771 161.583 106.588C157.502 118.498 153.868 132.942 153.868 132.942C153.868 132.942 152.175 127.158 151.49 114.251C150.804 101.344 158.094 84.3657 167.969 75.5081C177.845 66.6505 188.935 61.5 196.079 61.5C203.223 61.5 209.017 65.8925 203.566 70.6587Z" fill="#FFC529" stroke="#272D2F" stroke-linecap="round" stroke-linejoin="round"/>
<path d="M153.629 130.741C153.629 130.741 160.192 86.3283 173.359 71.6452" stroke="#272D2F" stroke-linecap="round" stroke-linejoin="round"/>
<path d="M223.503 77.8237C223.503 77.8237 231.499 107.2 226.338 130.564" stroke="#272D2F" stroke-linecap="round" stroke-linejoin="round"/>
<path d="M214.313 177.355C213.82 178.111 213.177 178.758 212.423 179.255C208.675 181.643 208.675 177.552 208.675 177.552C208.226 178.855 207.408 180 206.32 180.846C205.232 181.693 203.922 182.204 202.548 182.318C197.782 182.661 198.467 179.255 198.467 179.255C198.135 180.534 197.384 181.665 196.334 182.467C195.283 183.269 193.994 183.696 192.673 183.679C187.907 183.679 189.61 181.301 189.61 181.301C189.61 181.301 184.511 182.661 182.123 179.598C181.631 179.026 181.281 178.346 181.1 177.614C180.92 176.881 180.915 176.117 181.084 175.382C180.44 176.254 179.226 176.971 176.993 175.849C173.878 174.302 174.916 170.408 175.581 168.58C170.457 171.519 166.34 175.936 163.768 181.253C161.196 186.57 160.29 192.54 161.166 198.381C162.043 204.222 164.663 209.662 168.682 213.99C172.702 218.318 177.934 221.331 183.695 222.636C189.455 223.941 195.476 223.477 200.968 221.304C206.46 219.131 211.169 215.351 214.477 210.458C217.786 205.565 219.54 199.788 219.511 193.881C219.482 187.975 217.67 182.215 214.313 177.355ZM190.274 200.428C189.038 200.445 187.826 200.093 186.79 199.419C185.755 198.744 184.943 197.777 184.459 196.64C183.975 195.503 183.839 194.248 184.07 193.034C184.301 191.82 184.888 190.702 185.756 189.822C186.624 188.943 187.734 188.341 188.945 188.094C190.156 187.847 191.412 187.965 192.556 188.434C193.699 188.903 194.677 189.702 195.365 190.728C196.054 191.754 196.421 192.962 196.422 194.198C196.422 195.836 195.777 197.408 194.626 198.574C193.476 199.74 191.912 200.406 190.274 200.428Z" fill="white" stroke="#272D2F" stroke-linecap="round" stroke-linejoin="round"/>
<path d="M212.423 179.234C208.675 181.623 208.675 177.531 208.675 177.531C208.226 178.835 207.408 179.979 206.32 180.825C205.232 181.672 203.922 182.183 202.548 182.298C197.782 182.64 198.467 179.234 198.467 179.234C198.135 180.513 197.384 181.644 196.334 182.446C195.283 183.248 193.994 183.675 192.673 183.658C187.907 183.658 189.61 181.28 189.61 181.28C189.61 181.28 184.511 182.64 182.123 179.577C181.631 179.005 181.281 178.325 181.1 177.593C180.92 176.861 180.915 176.096 181.084 175.361C180.44 176.233 179.226 176.95 176.993 175.828C173.878 174.281 174.916 170.387 175.581 168.56C172.76 170.225 170.237 172.348 168.115 174.842C168.655 175.413 168.758 176.919 166.952 180.865C163.4 188.57 160.721 195.984 164.875 198.943C169.028 201.903 172.881 205.766 172.881 212.879C172.911 215.051 173.452 217.185 174.459 219.109C178.088 221.479 182.206 222.998 186.505 223.553C190.658 221.477 195.186 219.462 200.149 221.196C200.575 221.342 200.98 221.477 201.385 221.58C205.057 220.048 208.378 217.783 211.146 214.924C212.039 208.808 208.986 202.058 214.978 197.78C216.587 196.628 218.093 195.558 219.516 194.457V194.187C219.536 188.166 217.725 182.281 214.324 177.313C213.83 178.078 213.183 178.732 212.423 179.234ZM190.274 200.428C189.039 200.445 187.826 200.093 186.79 199.419C185.755 198.744 184.943 197.777 184.459 196.64C183.975 195.503 183.839 194.248 184.07 193.034C184.301 191.82 184.888 190.702 185.756 189.822C186.624 188.943 187.734 188.341 188.945 188.094C190.156 187.847 191.412 187.965 192.556 188.434C193.699 188.903 194.677 189.702 195.365 190.728C196.054 191.754 196.421 192.962 196.422 194.198C196.422 195.836 195.777 197.408 194.626 198.574C193.476 199.74 191.912 200.406 190.274 200.428Z" fill="#FE724C" stroke="#272D2F" stroke-width="2" stroke-linecap="round" stroke-linejoin="round"/>
<path d="M207.927 216.056C207.776 215.878 207.586 215.736 207.372 215.642C207.158 215.549 206.925 215.506 206.691 215.516C206.982 214.478 207.387 213.18 207.73 211.975C208.353 209.992 209.059 207.749 209.703 205.319C210.066 203.98 210.606 201.944 209.09 201.165C207.574 200.387 206.183 201.799 203.286 205.06C201.448 207.136 197.232 211.861 195.612 211.747C195.373 210.407 197.782 205.724 199.392 202.598C201.79 197.915 204.272 193.087 204.417 189.598C204.48 188.175 204.023 187.303 203.057 187.002C201.375 186.472 200.233 187.915 196.422 193.938C196.422 194.042 196.422 194.146 196.422 194.239C196.424 195.476 196.057 196.686 195.37 197.714C194.682 198.743 193.703 199.543 192.559 200.013C188.883 205.693 184.179 212.37 181.666 212.588H181.313C181.128 212.591 180.943 212.57 180.763 212.526C180.129 211.29 183.452 205.444 185.238 202.297C185.799 201.259 186.349 200.335 186.858 199.4C186.013 198.824 185.323 198.05 184.849 197.144C184.374 196.239 184.13 195.23 184.137 194.208C184.137 193.969 184.137 193.731 184.137 193.492C183.307 194.135 182.31 194.945 181.105 195.953C178.944 197.863 176.635 199.599 174.2 201.145C175.702 198.481 177.338 195.896 179.101 193.398C181.242 190.391 183.191 187.253 184.937 184.001C185.394 183.255 185.581 182.375 185.466 181.508C184.592 181.375 183.76 181.041 183.037 180.532C181.853 181.187 180.088 183.211 176.318 187.542C174.387 189.743 171.718 192.796 170.088 194.426C171.018 191.876 172.121 189.391 173.39 186.991C175.383 182.957 177.885 179.195 180.835 175.797C180.927 175.693 181.001 175.573 181.053 175.444C180.399 176.306 179.195 176.981 176.993 175.88L176.806 175.766C174.408 178.829 172.321 182.123 170.576 185.6C166.287 194.167 166.059 196.42 167.128 197.76C167.433 198.122 167.84 198.383 168.295 198.511C168.751 198.639 169.234 198.627 169.683 198.476C170.721 198.216 172.175 196.877 175.487 193.18C171.24 199.514 169.88 202.038 170.929 203.751C171.189 204.142 171.562 204.445 171.997 204.621C172.432 204.797 172.91 204.837 173.369 204.738C175.654 204.426 178.841 201.913 183.089 198.403L184.428 197.303C183.836 198.403 183.172 199.577 182.486 200.792C178.686 207.489 176.495 211.736 178.094 214.291C178.582 215.07 179.641 215.952 181.884 215.765C186.297 215.392 191.531 207.572 197.917 197.396C198.571 196.358 199.277 195.226 199.994 194.167C199.07 196.41 197.782 198.912 196.588 201.249C193.473 207.354 191.728 210.927 192.777 213.221C192.959 213.624 193.232 213.979 193.574 214.258C193.916 214.537 194.319 214.734 194.75 214.831C197.813 215.599 201.323 211.996 205.58 207.199L206.11 206.607C205.643 208.227 205.165 209.722 204.729 211.145C203.088 216.389 202.476 218.351 204.044 219.379C204.348 219.592 204.711 219.704 205.082 219.701H205.404C206.346 219.114 207.257 218.48 208.135 217.801C208.277 217.522 208.333 217.208 208.296 216.897C208.259 216.586 208.131 216.294 207.927 216.056Z" fill="white" stroke="#272D2F" stroke-linecap="round" stroke-linejoin="round"/>
<path d="M148.208 226.326C149.895 224.615 151.745 223.074 153.733 221.726C155.81 220.584 159.963 215.755 161.552 212.764C163.141 209.774 164.304 207.012 165.456 209.545C166.116 211.005 166.419 212.601 166.34 214.201C166.26 215.801 165.801 217.359 164.999 218.746C163.161 221.726 157.866 226.554 156.692 227.935C155.519 229.317 153.234 235.069 153.234 235.069C152.213 235.113 151.197 234.905 150.275 234.463C149.353 234.021 148.554 233.359 147.949 232.536C146.142 229.784 146.142 228.403 148.208 226.326Z" fill="#C2C2C2" stroke="#272D2F" stroke-linecap="round" stroke-linejoin="round"/>
<path d="M161.697 204.083C161.697 204.083 147.066 210.21 145.363 213.273C143.66 216.336 136.859 228.932 136.516 232.681C136.173 236.43 142.3 238.122 147.741 253.449C148.634 255.952 145.664 257.873 144.678 259.576C143.691 261.279 115.405 286.803 104.512 295.66C93.6195 304.518 84.0973 318.505 84.0973 326.293C84.0973 334.081 92.6018 344.673 101.117 345.358C109.632 346.044 118.136 340.249 124.263 328.671C130.389 317.093 155.571 275.235 158.977 270.52C162.383 265.806 165.103 262.348 165.446 257.25C165.648 253.961 165.648 250.663 165.446 247.374C165.446 247.374 178.717 228.995 178.717 226.949C178.717 224.903 182.808 220.147 182.123 218.444C181.437 216.741 179.745 217.759 178.042 219.119C176.339 220.48 157.616 234.104 157.616 234.104C157.616 234.104 165.103 221.508 167.149 219.805C169.195 218.102 175.653 212.318 174.636 210.958C173.618 209.597 172.258 209.919 170.212 211.633C168.167 213.346 160.337 218.444 158.302 221.165C156.266 223.886 148.426 229.275 148.426 229.275C148.426 229.275 149.787 220.417 151.832 217.022C153.878 213.626 163.4 209.867 164.761 207.147C166.121 204.426 164.086 202.723 161.697 204.083Z" fill="white" stroke="#272D2F" stroke-width="2" stroke-linecap="round" stroke-linejoin="round"/>
<path d="M140.95 238.101C141.724 239.517 142.785 240.755 144.065 241.736C145.313 242.672 146.721 243.376 148.219 243.813C148.219 243.813 151.334 245.89 153.411 247.447C154.865 248.487 156.433 249.358 158.084 250.043" stroke="#272D2F" stroke-linecap="round" stroke-linejoin="round"/>
<path d="M178.478 226.16C178.478 226.16 164.086 238.507 161.365 240.884L178.478 226.16Z" fill="white"/>
<path d="M178.478 226.16C178.478 226.16 164.086 238.507 161.365 240.884" stroke="#272D2F" stroke-linecap="round" stroke-linejoin="round"/>
<path d="M240.699 215.693C240.699 215.693 233.898 209.462 230.502 207.095C227.106 204.727 220.502 201.29 218.695 202.09C216.889 202.889 217.657 204.094 218.903 205.091C220.149 206.088 223.057 207.894 226.701 210.283C230.346 212.671 240.502 217.084 240.502 217.084C240.502 217.084 242.506 217.853 240.699 215.693Z" fill="#C2C2C2" stroke="#272D2F" stroke-linecap="round" stroke-linejoin="round"/>
<path d="M214.158 213.959C214.158 213.959 212.465 210.553 214.843 210.21C216.083 209.989 217.352 209.989 218.592 210.21C218.592 210.21 218.093 206.929 219.121 205.911C220.149 204.893 222.693 205.62 224.729 207.666C226.764 209.711 243.773 215.662 244.116 219.742C244.458 223.823 225.424 260.926 225.424 260.926C225.424 260.926 256.4 287.478 265.922 293.604C275.444 299.731 292.806 307.903 294.509 316.449C296.212 324.995 292.806 332.794 284.302 334.829C275.797 336.864 273.752 337.56 263.534 329.388C253.316 321.215 220.959 281.393 215.206 271.517C209.454 261.642 209.755 261.995 210.44 254.841C211.125 247.686 214.864 233.74 214.864 233.74C212.844 230.684 211.027 227.5 209.422 224.208C207.346 219.784 207.719 217.738 209.422 216.721C210.809 216.019 212.305 215.559 213.846 215.36L214.158 213.959Z" fill="white" stroke="#272D2F" stroke-width="2" stroke-linecap="round" stroke-linejoin="round"/>
<path d="M213.784 253.439L220.242 236.077L211.042 215.662C211.042 215.662 211.385 213.585 214.106 213.959C216.826 214.332 227.896 226.845 229.599 228.548C231.302 230.251 230.45 236.762 228.062 242.203" fill="white"/>
<path d="M213.784 253.439L220.242 236.077L211.042 215.662C211.042 215.662 211.385 213.585 214.106 213.959C216.826 214.332 227.896 226.845 229.599 228.548C231.302 230.251 230.45 236.762 228.062 242.203" stroke="#272D2F" stroke-linecap="round" stroke-linejoin="round"/>
<path d="M218.55 210.21L236.275 220.127C239.079 221.705 240.481 223.637 239.256 227.666" stroke="#272D2F" stroke-linecap="round" stroke-linejoin="round"/>
<path d="M187.512 134.874C187.512 135.12 187.439 135.361 187.302 135.566C187.165 135.771 186.971 135.931 186.743 136.025C186.515 136.119 186.265 136.144 186.023 136.096C185.781 136.048 185.559 135.929 185.385 135.755C185.211 135.581 185.092 135.359 185.044 135.117C184.996 134.875 185.021 134.625 185.115 134.397C185.209 134.169 185.369 133.975 185.574 133.838C185.779 133.701 186.02 133.628 186.266 133.628C186.596 133.63 186.911 133.762 187.144 133.996C187.377 134.229 187.509 134.544 187.512 134.874Z" fill="#FE724C" stroke="#272D2F" stroke-linecap="round" stroke-linejoin="round"/>
<path d="M179.9 136.878C180.245 136.878 180.524 136.599 180.524 136.255C180.524 135.911 180.245 135.632 179.9 135.632C179.556 135.632 179.277 135.911 179.277 136.255C179.277 136.599 179.556 136.878 179.9 136.878Z" fill="#FE724C" stroke="#272D2F" stroke-linecap="round" stroke-linejoin="round"/>
<path d="M191.476 412.096C226.127 412.096 254.217 400.515 254.217 386.229C254.217 371.943 226.127 360.362 191.476 360.362C156.826 360.362 128.736 371.943 128.736 386.229C128.736 400.515 156.826 412.096 191.476 412.096Z" fill="#272D2F" stroke="#272D2F" stroke-linecap="round" stroke-linejoin="round"/>
<path d="M191.477 408.534C230.4 408.534 261.953 396.953 261.953 382.667C261.953 368.382 230.4 356.801 191.477 356.801C152.553 356.801 121 368.382 121 382.667C121 396.953 152.553 408.534 191.477 408.534Z" fill="white" stroke="#272D2F" stroke-width="2" stroke-linecap="round" stroke-linejoin="round"/>
<path d="M191.476 399.614C218.66 399.614 240.697 391.757 240.697 382.065C240.697 372.373 218.66 364.516 191.476 364.516C164.293 364.516 142.256 372.373 142.256 382.065C142.256 391.757 164.293 399.614 191.476 399.614Z" fill="white" stroke="#272D2F" stroke-width="2" stroke-linecap="round" stroke-linejoin="round"/>
<path d="M234.371 365.945C235.918 356.848 226.016 347.577 212.255 345.237C198.493 342.897 186.084 348.375 184.537 357.472C182.99 366.568 192.892 375.84 206.653 378.18C220.415 380.52 232.824 375.042 234.371 365.945Z" fill="white" stroke="#272D2F" stroke-width="2" stroke-linecap="round" stroke-linejoin="round"/>
<path d="M215.889 358.358C215.536 360.435 212.774 361.619 209.659 361.089C206.544 360.56 204.363 358.493 204.706 356.458C205.048 354.423 207.821 353.197 210.936 353.717C214.051 354.236 216.232 356.323 215.889 358.358Z" fill="white" stroke="#272D2F" stroke-linecap="round" stroke-linejoin="round"/>
<path d="M169.826 392.117C184.02 392.117 195.526 385.018 195.526 376.26C195.526 367.503 184.02 360.404 169.826 360.404C155.632 360.404 144.125 367.503 144.125 376.26C144.125 385.018 155.632 392.117 169.826 392.117Z" fill="white" stroke="#272D2F" stroke-width="2" stroke-linecap="round" stroke-linejoin="round"/>
<path d="M172.806 377.32C188.749 377.32 201.674 369.244 201.674 359.282C201.674 349.321 188.749 341.245 172.806 341.245C156.863 341.245 143.938 349.321 143.938 359.282C143.938 369.244 156.863 377.32 172.806 377.32Z" fill="#272D2F" stroke="#272D2F" stroke-linecap="round" stroke-linejoin="round"/>
<path d="M155.101 358.151L159.161 357.849" stroke="white" stroke-linecap="round" stroke-linejoin="round"/>
<path d="M153.149 353.634L155.849 355.139" stroke="white" stroke-linecap="round" stroke-linejoin="round"/>
<path d="M161.114 351.09L158.403 352.138" stroke="white" stroke-linecap="round" stroke-linejoin="round"/>
<path d="M154.198 348.379L157.801 348.535" stroke="white" stroke-linecap="round" stroke-linejoin="round"/>
<path d="M169.971 346.583L168.621 347.777" stroke="white" stroke-linecap="round" stroke-linejoin="round"/>
<path d="M162.308 346.728L165.921 348.68" stroke="white" stroke-linecap="round" stroke-linejoin="round"/>
<path d="M176.887 346.583L178.839 348.234" stroke="white" stroke-linecap="round" stroke-linejoin="round"/>
<path d="M185.744 349.283L181.996 350.186" stroke="white" stroke-linecap="round" stroke-linejoin="round"/>
<path d="M189.348 353.935L192.359 354.392" stroke="white" stroke-linecap="round" stroke-linejoin="round"/>
<path d="M189.504 348.535L193.553 350.934" stroke="white" stroke-linecap="round" stroke-linejoin="round"/>
<path d="M185.142 344.475L181.996 344.62" stroke="white" stroke-linecap="round" stroke-linejoin="round"/>
<path d="M169.67 343.27H173.273" stroke="white" stroke-linecap="round" stroke-linejoin="round"/>
<path d="M199.566 356.946L195.661 357.995" stroke="white" stroke-linecap="round" stroke-linejoin="round"/>
<path d="M196.71 352.138L197.915 354.838" stroke="white" stroke-linecap="round" stroke-linejoin="round"/>
<path d="M192.66 359.199L189.805 361.754" stroke="white" stroke-linecap="round" stroke-linejoin="round"/>
<path d="M175.381 361.754L181.996 362.657" stroke="white" stroke-linecap="round" stroke-linejoin="round"/>
<path d="M183.491 358.296L186.793 357.548" stroke="white" stroke-linecap="round" stroke-linejoin="round"/>
<path d="M162.007 358.441L166.669 360.85" stroke="white" stroke-linecap="round" stroke-linejoin="round"/>
<path d="M172.526 364.308L167.718 365.056" stroke="white" stroke-linecap="round" stroke-linejoin="round"/>
<path d="M178.382 366.261L179.888 368.057" stroke="white" stroke-linecap="round" stroke-linejoin="round"/>
<path d="M188.756 364.007L185.599 365.804" stroke="white" stroke-linecap="round" stroke-linejoin="round"/>
<path d="M147.438 356.188L148.185 358.151" stroke="white" stroke-linecap="round" stroke-linejoin="round"/>
<path d="M197.011 362.055L198.07 363.249" stroke="white" stroke-linecap="round" stroke-linejoin="round"/>
<path d="M178.393 355.264C178.393 356.801 175.9 358.047 172.816 358.047C169.732 358.047 167.25 356.801 167.25 355.264C167.25 353.727 169.743 352.481 172.816 352.481C175.89 352.481 178.393 353.727 178.393 355.264Z" fill="white" stroke="#272D2F" stroke-linecap="round" stroke-linejoin="round"/>
<path d="M172.806 377.32C185.984 377.32 197.084 371.806 200.542 364.267C199.668 364.331 198.826 364.624 198.102 365.118C195.526 367.05 195.308 369.407 193.169 368.327C191.03 367.247 189.524 367.05 186.534 368.971C183.543 370.892 181.176 373.259 176.679 370.684C172.183 368.109 167.469 368.971 163.606 371.12C159.743 373.27 156.752 366.832 156.337 363.187C155.922 359.542 151.415 362.979 147.552 361.91C145.745 361.401 144.697 359.48 144.084 357.58C143.997 358.143 143.952 358.712 143.949 359.283C143.938 369.241 156.919 377.32 172.806 377.32Z" fill="white" stroke="#272D2F" stroke-width="2" stroke-linecap="round" stroke-linejoin="round"/>
<path d="M209.026 398.752C224.407 398.752 236.876 390.695 236.876 380.757C236.876 370.818 224.407 362.761 209.026 362.761C193.645 362.761 181.176 370.818 181.176 380.757C181.176 390.695 193.645 398.752 209.026 398.752Z" fill="white" stroke="#272D2F" stroke-linecap="round" stroke-linejoin="round"/>
<path d="M209.026 362.761C193.647 362.761 181.176 370.819 181.176 380.757C181.213 383.521 182.138 386.2 183.813 388.399C184.975 388.762 186.173 388.998 187.385 389.106C191.882 389.542 193.387 385.035 198.527 388.067C203.668 391.099 205.599 394.298 210.521 391.286C215.443 388.275 218.018 386.354 221.871 388.285C225.723 390.217 226.803 388.711 228.517 386.146C230.23 383.581 230.23 383.145 233.231 383.145C236.066 383.145 235.837 380.456 236.533 377.953C234.446 369.365 222.93 362.761 209.026 362.761Z" fill="#FE724C" stroke="#272D2F" stroke-linecap="round" stroke-linejoin="round"/>
<path d="M181.176 380.788C181.176 381.214 181.176 381.639 181.248 382.055C186.627 373.083 194.883 367.019 200.573 363.644C199.452 363.872 198.372 364.142 197.312 364.464C190.933 368.561 185.45 373.91 181.196 380.186C181.186 380.352 181.176 380.549 181.176 380.788Z" fill="white" stroke="#272D2F" stroke-width="0.5" stroke-linecap="round" stroke-linejoin="round"/>
<path d="M195.547 387.018C200.635 372.834 212.162 366.717 219.794 364.173C219.192 364.007 218.579 363.862 217.946 363.727C210.106 366.655 199.254 373.124 194.426 387.07C194.796 387.011 195.173 386.994 195.547 387.018Z" fill="white" stroke="#272D2F" stroke-width="0.5" stroke-linecap="round" stroke-linejoin="round"/>
<path d="M211.165 362.824C210.458 362.824 209.742 362.761 209.025 362.761H208.33C194.737 368.306 187.281 378.919 183.283 387.61C183.45 387.873 183.626 388.133 183.813 388.389L184.031 388.451C188.122 379.376 196.087 367.995 211.165 362.824Z" fill="white" stroke="#272D2F" stroke-width="0.5" stroke-linecap="round" stroke-linejoin="round"/>
<path d="M236.253 377.06C236.149 376.742 236.035 376.42 235.91 376.094C229.42 378.306 224.207 382.782 220.188 387.641C220.543 387.723 220.891 387.834 221.227 387.974C225.121 383.363 230.105 379.158 236.253 377.06Z" fill="white" stroke="#272D2F" stroke-width="0.5" stroke-linecap="round" stroke-linejoin="round"/>
<path d="M229.139 368.327C228.755 368.067 228.361 367.829 227.956 367.579C216.388 370.798 207.437 378.223 201.217 389.77L202.079 390.362C208.33 378.711 217.385 371.328 229.139 368.327Z" fill="white" stroke="#272D2F" stroke-width="0.5" stroke-linecap="round" stroke-linejoin="round"/>
<path d="M232.898 371.525C232.649 371.255 232.41 370.985 232.14 370.726C223.224 374.596 215.978 381.517 211.705 390.248C211.642 390.383 211.59 390.507 211.528 390.632L213.2 389.593C217.498 381.489 224.453 375.109 232.898 371.525Z" fill="white" stroke="#272D2F" stroke-width="0.5" stroke-linecap="round" stroke-linejoin="round"/>
<path d="M214.81 375.191C214.81 376.364 212.172 377.33 208.911 377.33C205.651 377.33 203.024 376.364 203.024 375.191C203.024 374.017 205.661 373.041 208.911 373.041C212.162 373.041 214.81 374.007 214.81 375.191Z" fill="white" stroke="#272D2F" stroke-linecap="round" stroke-linejoin="round"/>
</svg>
