<svg width="30" height="30" viewBox="0 0 30 30" fill="none" xmlns="http://www.w3.org/2000/svg">
<path d="M26.05 5.76249C25.4116 5.12375 24.6535 4.61705 23.8192 4.27135C22.9849 3.92565 22.0906 3.74771 21.1875 3.74771C20.2844 3.74771 19.3901 3.92565 18.5558 4.27135C17.7215 4.61705 16.9634 5.12375 16.325 5.76249L15 7.08749L13.675 5.76249C12.3854 4.47288 10.6363 3.74838 8.8125 3.74838C6.9887 3.74838 5.23961 4.47288 3.95 5.76249C2.66038 7.05211 1.93588 8.8012 1.93588 10.625C1.93588 12.4488 2.66038 14.1979 3.95 15.4875L5.275 16.8125L15 26.5375L24.725 16.8125L26.05 15.4875C26.6887 14.849 27.1954 14.091 27.5411 13.2567C27.8868 12.4224 28.0648 11.5281 28.0648 10.625C28.0648 9.72188 27.8868 8.82762 27.5411 7.9933C27.1954 7.15898 26.6887 6.40094 26.05 5.76249V5.76249Z" fill="#272D2F" stroke="#272D2F" stroke-width="2.5" stroke-linecap="round" stroke-linejoin="round"/>
</svg>
