<svg width="20" height="28" viewBox="0 0 20 28" fill="none" xmlns="http://www.w3.org/2000/svg">
<path fill-rule="evenodd" clip-rule="evenodd" d="M1 27L10 22.5864L19 27V3.52206C19 2.12917 17.8487 1 16.4286 1H3.57143C2.15127 1 1 2.12917 1 3.52206V27ZM10 19.7666L3.57144 22.9192V3.52207H16.4286V22.9192L10 19.7666Z" fill="white"/>
<path d="M10 22.5864L10.2202 22.1375L10 22.0295L9.77985 22.1375L10 22.5864ZM1 27H0.5V27.8021L1.22015 27.4489L1 27ZM19 27L18.7798 27.4489L19.5 27.8021V27H19ZM3.57144 22.9192H3.07144V23.7213L3.79159 23.3681L3.57144 22.9192ZM10 19.7666L10.2202 19.3177L10 19.2098L9.77986 19.3177L10 19.7666ZM3.57144 3.52207V3.02207H3.07144V3.52207H3.57144ZM16.4286 3.52207H16.9286V3.02207H16.4286V3.52207ZM16.4286 22.9192L16.2084 23.3681L16.9286 23.7213V22.9192H16.4286ZM9.77985 22.1375L0.779847 26.5511L1.22015 27.4489L10.2202 23.0353L9.77985 22.1375ZM19.2202 26.5511L10.2202 22.1375L9.77985 23.0353L18.7798 27.4489L19.2202 26.5511ZM18.5 3.52206V27H19.5V3.52206H18.5ZM16.4286 1.5C17.5818 1.5 18.5 2.4144 18.5 3.52206H19.5C19.5 1.84393 18.1157 0.5 16.4286 0.5V1.5ZM3.57143 1.5H16.4286V0.5H3.57143V1.5ZM1.5 3.52206C1.5 2.4144 2.41823 1.5 3.57143 1.5V0.5C1.88431 0.5 0.5 1.84393 0.5 3.52206H1.5ZM1.5 27V3.52206H0.5V27H1.5ZM3.79159 23.3681L10.2202 20.2156L9.77986 19.3177L3.35129 22.4703L3.79159 23.3681ZM3.07144 3.52207V22.9192H4.07144V3.52207H3.07144ZM16.4286 3.02207H3.57144V4.02207H16.4286V3.02207ZM16.9286 22.9192V3.52207H15.9286V22.9192H16.9286ZM9.77986 20.2156L16.2084 23.3681L16.6487 22.4703L10.2202 19.3177L9.77986 20.2156Z" fill="white"/>
</svg>
