<svg width="20" height="19" viewBox="0 0 20 19" fill="none" xmlns="http://www.w3.org/2000/svg">
<path d="M18.9125 16.4267L15.1787 12.7273C15.0102 12.5603 14.7817 12.4675 14.5421 12.4675H13.9316C14.9652 11.1577 15.5794 9.5102 15.5794 7.718C15.5794 3.4545 12.0928 0 7.7897 0C3.4867 0 0 3.4545 0 7.718C0 11.9814 3.4867 15.436 7.7897 15.436C9.5986 15.436 11.2614 14.8275 12.5834 13.8033V14.4082C12.5834 14.6456 12.677 14.872 12.8455 15.039L16.5794 18.7384C16.9314 19.0872 17.5006 19.0872 17.8489 18.7384L18.9088 17.6883C19.2608 17.3395 19.2608 16.7755 18.9125 16.4267ZM7.7897 12.4675C5.142 12.4675 2.9961 10.3451 2.9961 7.718C2.9961 5.0946 5.1382 2.9685 7.7897 2.9685C10.4375 2.9685 12.5834 5.0909 12.5834 7.718C12.5834 10.3414 10.4412 12.4675 7.7897 12.4675Z" fill="#272D2F"/>
</svg>
