<svg width="23" height="23" viewBox="0 0 23 23" fill="none" xmlns="http://www.w3.org/2000/svg">
<path fill-rule="evenodd" clip-rule="evenodd" d="M11.6771 22.6809C5.60943 22.6809 0.690582 17.6322 0.690582 11.4043C0.690582 5.17639 5.60943 0.127686 11.6771 0.127686C17.7448 0.127686 22.6637 5.17639 22.6637 11.4043C22.6637 17.6322 17.7448 22.6809 11.6771 22.6809ZM11.6771 19.8617C16.2279 19.8617 19.917 16.0752 19.917 11.4043C19.917 6.73336 16.2279 2.94683 11.6771 2.94683C7.12635 2.94683 3.43722 6.73336 3.43722 11.4043C3.43722 16.0752 7.12635 19.8617 11.6771 19.8617ZM10.3079 12.8115H15.8011V9.99238H13.0554V5.76365H10.3079V12.8115Z" fill="white"/>
</svg>
